<?xml version="1.0" encoding="UTF-8"?>
<svg id="Layer_1" xmlns="http://www.w3.org/2000/svg" version="1.1" xmlns:xlink="http://www.w3.org/1999/xlink" viewBox="0 0 612 310">
  <!-- Generator: Adobe Illustrator 29.1.0, SVG Export Plug-In . SVG Version: 2.1.0 Build 142)  -->
  <defs>
    <style>
      .st0 {
        fill: #4f5457;
      }

      .st1 {
        isolation: isolate;
      }

      .st2 {
        fill: #28b4e9;
      }

      .st3 {
        fill: url(#linear-gradient);
      }
    </style>
    <linearGradient id="linear-gradient" x1="149" y1="-185.6" x2="69.4" y2="-47.7" gradientTransform="translate(0 40.7) scale(1 -1)" gradientUnits="userSpaceOnUse">
      <stop offset="0" stop-color="#1f4283"/>
      <stop offset=".8" stop-color="#1197d4"/>
      <stop offset="1" stop-color="#29b0e6"/>
    </linearGradient>
  </defs>
  <g class="st1">
    <g class="st1">
      <g class="st1">
        <g class="st1">
          <path class="st0" d="M305,143.2c0,2.3-.4,2.8-2.8,2.8h-.9c-2.2,0-2.8-.4-2.8-2.8v-24.5c0-10.8,5.5-16.1,16.5-16.1s11.2,2.4,13.2,7.2c2.2-4.7,6.6-7.2,13.3-7.2,11.5,0,16.4,5.7,16.4,16.1v24.5c0,2.3-.6,2.8-2.8,2.8h-.9c-2.3,0-2.8-.4-2.8-2.8v-24.5c0-6.8-2.3-10-9.9-10s-10.1,3.1-10.1,10v24.5c0,2.3-.4,2.8-2.8,2.8h-.9c-2.3,0-2.8-.4-2.8-2.8v-24.5c0-6.8-2.4-10-10-10s-10,3.2-10,10v24.5Z"/>
          <path class="st0" d="M402.8,124.5c-.3,2.2-.8,2.7-3.1,2.7h-26.1v2.6c0,7.9,3.9,11,13.5,11s7.7-.5,11.7-1.6c2.1-.6,2.8,0,2.8,2.2v.8c0,1.8-.3,2.4-2.7,3.1-3.7,1.1-7.7,1.6-11.8,1.6-13.5,0-19.9-5.3-19.9-18v-8c0-12.2,6-18.2,18.2-18.2s17.7,5.9,17.7,17.3,0,3.5-.3,4.7ZM373.7,121.7h23.3v-2.8c0-7-3.9-10.5-11.7-10.5s-11.7,3.5-11.7,10.5v2.8Z"/>
          <path class="st0" d="M449.3,128.8c0,12-6.3,18-18.9,18s-18.9-6-18.9-18v-8c0-12.2,6-18.2,17.9-18.2s11.1,2.1,13.5,6.3v-20.5c0-2.3.4-2.8,2.8-2.8h.9c2.2,0,2.8.4,2.8,2.8v40.5ZM418,128.7c0,8.3,2.8,12,12.4,12s12.4-3.7,12.4-12v-8c0-8.3-3-12-12.4-12s-12.4,3.7-12.4,12v8Z"/>
          <path class="st0" d="M467.6,90.2c0,2.3-1.8,4.1-4.1,4.1s-4.3-1.8-4.3-4.1,1.9-4.2,4.3-4.2,4.1,1.9,4.1,4.2ZM460.1,106.2c0-2.2.4-2.8,2.8-2.8h.9c2.2,0,2.8.6,2.8,2.8v37c0,2.3-.6,2.8-2.8,2.8h-.9c-2.3,0-2.8-.4-2.8-2.8v-37Z"/>
          <path class="st0" d="M477,120.5c0-11.3,6.1-17.9,19.2-17.9s5.4.3,7.6,1.1c2.1.7,2.6,1.3,2.6,3.3v.9c0,2.2-.5,2.8-2.6,2.1-2.2-.8-4.7-1.2-7.4-1.2-9.7,0-12.9,3.8-12.9,11.8v8.4c0,8.7,3.9,11.8,13.5,11.8s5.5-.3,7.8-1.1c2-.7,2.6,0,2.6,2.2v.9c0,1.8-.6,2.5-2.8,3.1-2.4.8-5.1,1.1-8,1.1-13.2,0-19.5-5.7-19.5-17.9v-8.5Z"/>
          <path class="st0" d="M546.3,133.2c0,9.6-5.6,13.6-18,13.6s-16.2-4-16.2-12.9,5.9-12.6,17.6-12.6h10.2v-5.2c0-5.9-4-7.9-11.3-7.9s-7,.3-9.5.9c-2.1.4-2.8,0-2.8-2.2v-.7c0-2,.5-2.5,2.6-2.9,2.8-.6,6-.9,9.3-.9,12.1,0,18.1,4.5,18.1,13.5v17.1ZM539.8,126.4h-10.1c-7.7,0-11.2,2.1-11.2,7.5s3.2,7.3,9.7,7.3,11.7-1.8,11.7-8.3v-6.6Z"/>
          <path class="st0" d="M555.8,88.3c0-2.3.4-2.8,2.8-2.8h.9c2.2,0,2.8.4,2.8,2.8v45.5c0,4.4,1.5,6.6,4.4,6.6h.4c2.2,0,2.7.2,2.7,2.2v.6c0,2.2-.4,2.8-2.4,3.2-.4,0-.9,0-1.6,0-6,0-10-3.5-10-11.6v-46.6Z"/>
        </g>
      </g>
    </g>
    <g class="st1">
      <g class="st1">
        <g class="st1">
          <path class="st0" d="M295.2,224c0-2.1.7-2.6,2.6-2.1,3.9,1.1,7.9,1.6,12.1,1.6,6.3,0,9-1.2,9-4.7s-1.4-4-5.3-5.9l-10-4.8c-5.3-2.6-7.7-5-7.7-10.7s4.6-10.4,14.6-10.4,7.2.5,10.3,1.6c2,.7,2.5,1.2,2.5,3v.7c0,2.1-.7,2.6-2.6,2-3.2-1.1-6.7-1.6-10.3-1.6-6,0-8.3,1.3-8.3,4.6s1.5,4.1,4.4,5.4l10.5,4.8c5.6,2.6,8.2,5.2,8.2,11s-4.9,10.6-15.6,10.6-7.7-.5-11.6-1.6c-2.1-.6-2.6-1.3-2.6-3v-.7Z"/>
        </g>
      </g>
    </g>
    <g class="st1">
      <g class="st1">
        <g class="st1">
          <path class="st0" d="M345,218.9c1,3.6,2.1,4.5,5,4.5s3.7-1,4.6-4.5l6.8-28.4c.4-2.1,1.2-2.7,3.5-2.7h.7c2.2,0,2.7.5,2.1,2.7l-9.5,37.9c-2.8,11.1-8.3,16.9-16.5,17.4-1.9.2-2.6-.3-3-2.3l-.2-.7c-.4-1.9,0-2.2,2.1-2.5,6-.7,9-4.4,11.4-12.4-1.1.6-2.4.9-4.1.9-5.5,0-7.5-3-9.2-9.6l-7.8-28.6c-.6-2.2-.2-2.7,2.1-2.7h.7c2.2,0,3,.5,3.5,2.7l7.7,28.4Z"/>
        </g>
      </g>
    </g>
    <g class="st1">
      <g class="st1">
        <g class="st1">
          <path class="st0" d="M373.4,224c0-2.1.7-2.6,2.6-2.1,3.9,1.1,7.9,1.6,12.1,1.6,6.3,0,9-1.2,9-4.7s-1.4-4-5.3-5.9l-10-4.8c-5.3-2.6-7.7-5-7.7-10.7s4.6-10.4,14.6-10.4,7.2.5,10.3,1.6c2,.7,2.5,1.2,2.5,3v.7c0,2.1-.7,2.6-2.6,2-3.2-1.1-6.7-1.6-10.3-1.6-6,0-8.3,1.3-8.3,4.6s1.5,4.1,4.4,5.4l10.5,4.8c5.6,2.6,8.2,5.2,8.2,11s-4.9,10.6-15.6,10.6-7.7-.5-11.6-1.6c-2.1-.6-2.6-1.3-2.6-3v-.7Z"/>
        </g>
      </g>
    </g>
    <g class="st1">
      <g class="st1">
        <g class="st1">
          <path class="st0" d="M408.1,191c0-1.9.5-2.3,2.2-2.6l4.7-.7.9-8.5c0-1.7.6-2.2,2.5-2.2h.6c1.7,0,2.2.5,2.2,2.2v8.5h13.3c2.1,0,2.6.5,2.6,2.6v.7c0,2.1-.5,2.6-2.6,2.6h-13.3v20.9c0,6.3,2.6,8.7,7.6,8.7s5.4-.2,7.3-.8c1.9-.4,2.5,0,2.5,2.1v.7c0,1.6-.5,2.4-2.6,3-2.2.6-4.6.8-7.2.8-9.2,0-13.8-4.9-13.8-14.6v-20.9h-4.7c-1.9,0-2.2-.3-2.2-2.2v-.4Z"/>
        </g>
      </g>
    </g>
    <g class="st1">
      <g class="st1">
        <g class="st1">
          <path class="st0" d="M477.4,207.9c-.2,2.1-.7,2.6-3,2.6h-24.9v2.5c0,7.5,3.7,10.5,12.8,10.5s7.3-.5,11.2-1.6c2-.6,2.6,0,2.6,2.1v.7c0,1.7-.3,2.3-2.6,3-3.5,1.1-7.3,1.6-11.3,1.6-12.9,0-19-5-19-17.2v-7.7c0-11.6,5.8-17.4,17.4-17.4s16.9,5.6,16.9,16.5,0,3.4-.2,4.4ZM449.6,205.3h22.2v-2.7c0-6.7-3.7-10-11.1-10s-11.1,3.4-11.1,10v2.7Z"/>
        </g>
      </g>
    </g>
    <g class="st1">
      <g class="st1">
        <g class="st1">
          <path class="st0" d="M491.4,225.8c0,2.2-.4,2.6-2.6,2.6h-.9c-2.1,0-2.6-.4-2.6-2.6v-23.4c0-10.3,5.3-15.4,15.7-15.4s10.7,2.3,12.6,6.8c2.1-4.5,6.3-6.8,12.7-6.8,10.9,0,15.6,5.4,15.6,15.4v23.4c0,2.2-.6,2.6-2.6,2.6h-.9c-2.2,0-2.6-.4-2.6-2.6v-23.4c0-6.5-2.2-9.5-9.5-9.5s-9.6,3-9.6,9.5v23.4c0,2.2-.4,2.6-2.6,2.6h-.8c-2.2,0-2.6-.4-2.6-2.6v-23.4c0-6.5-2.3-9.5-9.5-9.5s-9.5,3-9.5,9.5v23.4Z"/>
        </g>
      </g>
    </g>
    <g class="st1">
      <g class="st1">
        <g class="st1">
          <path class="st0" d="M549.5,224c0-2.1.7-2.6,2.6-2.1,3.9,1.1,7.9,1.6,12.1,1.6,6.3,0,9-1.2,9-4.7s-1.4-4-5.3-5.9l-10-4.8c-5.3-2.6-7.7-5-7.7-10.7s4.6-10.4,14.6-10.4,7.2.5,10.3,1.6c2,.7,2.5,1.2,2.5,3v.7c0,2.1-.7,2.6-2.6,2-3.2-1.1-6.7-1.6-10.3-1.6-6,0-8.3,1.3-8.3,4.6s1.5,4.1,4.4,5.4l10.5,4.8c5.6,2.6,8.2,5.2,8.2,11s-4.9,10.6-15.6,10.6-7.7-.5-11.6-1.6c-2.1-.6-2.6-1.3-2.6-3v-.7Z"/>
        </g>
      </g>
    </g>
  </g>
  <rect class="st0" x="230.5" y="36.1" width="1.4" height="237.9"/>
  <path class="st3" d="M148.7,154.5c11.8-6.8,17.6-17.2,17.6-31.2,0-24.4-14.7-39.6-48.2-39.6h-32.6c-19,0-27.2,8.2-27.2,27.2v92.8c0,19,8.1,27.2,27.2,27.2h34.9c33.7,0,50.5-14,50.5-42.3s-5.7-25.8-22.2-33.9h0v-.2ZM88.7,118.8c0-4.5,2.3-6.8,6.8-6.8h22.6c11.6,0,17.4,5,17.4,14.9s-5.9,15.6-17.4,15.6h-29.4v-23.8h0ZM120.4,202.5h-24.9c-4.5,0-6.8-2.3-6.8-6.8v-27.2h31.7c13.1,0,19.7,5.9,19.7,17.4s-6.6,16.5-19.7,16.5h0Z"/>
  <path class="st2" d="M45.8,57.2c-7.6,0-13.7,6.2-13.7,13.7s6.2,13.7,13.7,13.7,13.7-6.2,13.7-13.7-6.2-13.7-13.7-13.7ZM45.8,77.4c-3.6,0-6.5-2.9-6.5-6.5s2.9-6.5,6.5-6.5,6.5,2.9,6.5,6.5-2.9,6.5-6.5,6.5Z"/>
</svg>